<?xml version="1.0" standalone="no"?>
<!DOCTYPE svg PUBLIC "-//W3C//DTD SVG 20010904//EN"
 "http://www.w3.org/TR/2001/REC-SVG-20010904/DTD/svg10.dtd">
<svg version="1.0" xmlns="http://www.w3.org/2000/svg"
 width="500.000000pt" height="500.000000pt" viewBox="0 0 500.000000 500.000000"
 preserveAspectRatio="xMidYMid meet">
<metadata>
Created by potrace 1.11, written by Peter Selinger 2001-2013
</metadata>
<g transform="translate(0.000000,500.000000) scale(0.100000,-0.100000)"
fill="#000000" stroke="none">
<path d="M0 2500 l0 -2500 2500 0 2500 0 0 2500 0 2500 -2500 0 -2500 0 0
-2500z m988 155 c-3 -3 -9 2 -12 12 -6 14 -5 15 5 6 7 -7 10 -15 7 -18z m42
19 c0 -8 -19 -13 -24 -6 -3 5 1 9 9 9 8 0 15 -2 15 -3z m134 -23 c-2 -3 -12 3
-22 13 -16 17 -16 18 5 5 12 -7 20 -15 17 -18z m504 14 c3 -3 -4 -4 -16 -2
-12 2 -24 6 -28 10 -4 3 4 4 16 2 12 -2 25 -7 28 -10z m38 -2 c-2 -11 9 -25
25 -35 61 -37 84 -113 53 -179 -16 -37 -16 -42 -3 -53 9 -6 14 -17 11 -25 -2
-8 0 -11 5 -8 6 4 7 -11 2 -41 -4 -26 -5 -49 -3 -51 1 -2 -4 -10 -12 -18 -9
-9 -12 -22 -8 -32 27 -66 28 -71 16 -113 -7 -24 -14 -48 -14 -55 -1 -7 -4 -11
-7 -10 -10 2 -71 -39 -66 -45 3 -3 -16 -1 -42 4 -27 5 -60 9 -75 9 -16 0 -28
4 -28 9 0 5 7 7 16 3 10 -4 7 6 -10 32 -14 21 -26 46 -26 57 0 11 -4 17 -9 14
-5 -3 -2 13 5 35 8 22 11 45 8 51 -4 6 -2 8 4 4 17 -10 20 17 5 41 -13 19 -26
129 -14 117 3 -2 10 5 17 17 9 17 8 28 -3 51 -20 39 -22 109 -3 131 8 10 15
30 15 44 0 15 7 28 15 30 9 3 11 1 5 -4 -14 -11 -17 -33 -6 -33 10 0 26 19 26
32 0 3 4 10 9 15 5 5 6 2 1 -6 -6 -11 -3 -13 16 -8 13 4 34 7 47 7 12 0 21 3
21 8 -2 11 1 22 5 22 2 0 3 -8 2 -17z m1064 13 c0 -2 -7 -7 -16 -10 -8 -3 -12
-2 -9 4 6 10 25 14 25 6z m69 -13 c-11 -12 -11 -17 -2 -20 25 -9 64 -46 79
-75 10 -19 14 -48 12 -78 -2 -31 2 -53 12 -66 14 -19 14 -19 -7 -1 -26 23 -39
7 -21 -25 13 -25 28 -129 17 -123 -3 3 -11 -6 -17 -20 -9 -18 -8 -31 4 -54 13
-26 17 -148 5 -135 -3 2 -19 -10 -37 -27 -40 -39 -101 -50 -140 -24 -18 11
-24 13 -19 4 4 -8 -3 -3 -17 11 -27 27 -26 25 -34 92 -4 32 -1 57 10 78 14 30
12 65 -4 55 -8 -5 -8 110 0 135 3 8 10 18 15 22 6 4 1 8 -10 8 -13 0 -16 3 -8
8 8 5 9 13 3 22 -16 26 -11 93 10 128 22 36 74 72 106 72 12 0 27 7 34 15 7 8
15 15 17 15 3 0 -1 -7 -8 -17z m487 3 c11 3 15 2 9 -3 -19 -15 -17 -36 2 -28
10 5 33 10 50 13 20 2 30 8 26 15 -3 6 -1 7 6 3 6 -4 9 -12 6 -17 -4 -5 8 -9
25 -9 l31 0 -2 -55 c-2 -35 -7 -56 -16 -59 -10 -4 -11 -1 -5 11 13 22 -4 70
-28 83 -24 13 -73 13 -65 0 3 -6 -1 -7 -9 -4 -14 6 -21 -5 -17 -28 0 -5 -3 -8
-9 -8 -5 0 -10 -12 -10 -26 0 -17 4 -23 13 -18 9 6 9 4 1 -7 -5 -8 -11 -31
-13 -52 -3 -37 -2 -38 20 -27 13 8 43 10 74 7 54 -5 82 3 71 21 -3 6 -2 13 4
17 6 4 7 11 4 17 -4 7 -2 8 5 4 6 -4 8 -13 4 -19 -4 -6 -8 -23 -9 -37 -6 -90
-8 -96 -25 -96 -10 0 -16 3 -13 7 4 6 -55 3 -99 -6 -9 -2 -15 0 -12 5 3 4 -2
10 -10 14 -12 4 -15 -6 -15 -60 0 -61 1 -64 19 -54 11 5 49 9 85 7 l66 -2 0
-42 c0 -38 -2 -42 -27 -43 -77 -4 -110 -3 -127 5 -17 8 -18 3 -14 -69 3 -62 7
-81 23 -92 29 -22 73 -17 100 11 26 25 35 62 13 49 -8 -4 -10 -3 -5 2 5 5 14
9 20 9 7 0 12 10 12 22 0 12 4 25 9 30 5 5 6 3 2 -4 -4 -8 -2 -13 6 -13 9 0 9
-3 -2 -10 -8 -5 -11 -10 -7 -10 5 0 5 -5 1 -12 -4 -7 -7 -31 -5 -54 l2 -41
-70 -9 c-41 -6 -67 -6 -64 -1 3 5 -4 6 -15 3 -12 -4 -23 -2 -28 5 -5 8 -3 10
7 4 8 -5 3 4 -10 18 -20 22 -27 25 -40 14 -14 -10 -14 -10 -3 4 12 16 7 53 -7
45 -11 -7 4 86 17 111 10 19 10 28 -3 52 -19 39 -19 84 1 127 13 27 14 37 4
49 -13 15 -31 127 -19 120 9 -6 21 24 13 36 -3 5 0 8 8 7 7 -2 12 3 11 10 -2
6 2 11 9 10 18 -4 16 24 -2 42 -9 8 -11 12 -4 7 6 -4 20 -5 30 -1z m744 10 c0
-2 -8 -10 -17 -17 -16 -13 -17 -12 -4 4 13 16 21 21 21 13z m-2855 -16 c3 -6
-1 -7 -9 -4 -18 7 -21 14 -7 14 6 0 13 -4 16 -10z m58 -5 c-3 -9 -8 -14 -10
-11 -3 3 -2 9 2 15 9 16 15 13 8 -4z m285 -4 c-7 -9 -13 -18 -15 -20 -1 -2 -1
5 0 16 0 11 7 20 14 20 10 0 10 -4 1 -16z m1373 2 c13 -16 12 -17 -3 -4 -17
13 -22 21 -14 21 2 0 10 -8 17 -17z m533 9 c3 -5 -1 -9 -9 -9 -8 0 -12 4 -9 9
3 4 7 8 9 8 2 0 6 -4 9 -8z m416 -2 c0 -5 -5 -10 -11 -10 -5 0 -7 5 -4 10 3 6
8 10 11 10 2 0 4 -4 4 -10z m-2944 -19 c5 1 23 1 41 0 30 -1 32 -4 58 -81 24
-73 45 -103 45 -64 0 9 -5 12 -12 8 -7 -4 -8 -3 -4 5 4 6 11 9 16 6 4 -3 11 6
14 19 3 13 9 32 13 42 5 13 3 15 -8 10 -9 -5 -9 -3 2 6 8 7 18 21 22 31 5 13
18 17 57 17 32 0 49 -4 45 -10 -3 -5 -15 -10 -26 -10 -17 0 -19 -7 -19 -81 0
-76 1 -81 20 -76 13 3 20 0 20 -9 0 -8 -9 -14 -20 -14 -15 0 -20 -7 -20 -25 0
-18 5 -25 20 -25 11 0 20 -4 20 -10 0 -5 -9 -10 -20 -10 -17 0 -20 -7 -20 -45
0 -38 3 -45 20 -45 11 0 20 -4 20 -10 0 -5 -9 -10 -20 -10 -15 0 -20 -7 -20
-26 0 -22 4 -26 24 -22 17 4 23 1 19 -9 -3 -7 -14 -13 -24 -13 -17 0 -19 -8
-19 -81 l0 -81 25 5 c14 2 23 2 20 -1 -2 -3 -1 -10 4 -16 7 -8 -10 -10 -61 -8
-55 3 -69 1 -63 -8 5 -9 4 -11 -3 -6 -23 14 -56 15 -71 3 -11 -9 -13 -9 -8 0
4 6 3 14 -3 18 -5 3 -10 2 -10 -2 0 -5 -18 -7 -40 -5 -24 3 -47 -1 -58 -9 -16
-13 -16 -12 -2 6 8 11 20 24 27 28 8 5 12 34 12 82 0 67 -2 75 -20 75 -10 0
-20 5 -20 10 -1 6 -2 14 -3 19 0 5 -4 12 -8 16 -8 9 23 45 39 45 9 0 13 15 13
46 0 41 -2 46 -20 41 -11 -3 -18 -2 -15 3 6 9 -19 32 -27 25 -2 -3 -5 2 -5 10
0 13 2 13 17 0 26 -24 50 -19 50 10 0 16 -6 25 -16 25 -8 0 -13 -4 -9 -9 3 -5
2 -12 -3 -15 -4 -2 -9 6 -10 20 -1 18 3 24 18 24 18 0 20 7 20 80 0 64 -3 80
-15 80 -8 0 -20 10 -26 23 -11 19 -10 21 3 9 9 -7 20 -12 24 -11z m1178 10 c4
-5 32 -9 63 -9 35 1 58 -3 61 -10 2 -7 -6 -12 -17 -12 -20 0 -21 -6 -21 -80 0
-73 2 -80 20 -80 11 0 20 -4 20 -10 0 -5 -9 -10 -20 -10 -15 0 -20 -7 -20 -25
0 -23 4 -25 40 -25 41 0 67 17 97 66 11 16 12 11 11 -36 l-1 -55 -74 2 -73 2
0 -45 c0 -37 3 -44 20 -44 11 0 20 -4 20 -10 0 -5 -9 -10 -20 -10 -15 0 -20
-7 -20 -25 0 -23 3 -25 50 -25 48 0 51 2 67 35 23 47 33 44 33 -10 l0 -45 -75
0 -76 0 3 -82 3 -83 29 -3 c15 -2 26 1 22 6 -3 5 5 7 17 5 27 -5 48 16 51 51
2 43 26 17 26 -30 l0 -44 -116 0 c-101 0 -115 -2 -110 -16 3 -8 2 -12 -4 -9
-15 9 -12 24 10 42 17 15 20 30 20 90 0 66 -2 73 -20 73 -11 0 -21 5 -21 10
-1 6 -2 14 -3 19 0 5 -4 12 -8 16 -8 9 23 45 39 45 9 0 13 15 13 46 0 40 -3
46 -18 42 -12 -3 -18 1 -19 12 -1 13 4 16 18 13 15 -4 19 0 19 21 0 17 -5 26
-16 26 -13 0 -14 -3 -5 -13 8 -10 7 -14 -2 -14 -7 0 -14 11 -15 24 -1 17 3 23
18 23 17 0 19 7 18 80 -1 83 -2 84 -46 83 -10 -1 -10 2 0 15 11 13 10 15 -5 9
-11 -4 -16 -3 -12 3 8 13 22 13 29 1z m547 -14 c-10 -9 -11 -8 -5 6 3 10 9 15
12 12 3 -3 0 -11 -7 -18z m73 14 c4 -5 -3 -7 -14 -4 -23 6 -26 13 -6 13 8 0
17 -4 20 -9z m185 -15 c9 -10 8 -15 -3 -19 -8 -3 -20 2 -28 11 -12 16 -11 16
6 2 18 -14 19 -13 13 3 -8 21 -3 22 12 3z m962 5 c31 -1 46 -5 46 -15 0 -8 -8
-11 -19 -8 -16 4 -18 -2 -18 -47 l0 -51 50 0 50 0 0 50 c0 43 -3 50 -20 50
-11 0 -20 6 -20 13 0 9 18 11 65 9 36 -2 65 -8 65 -13 0 -5 -9 -9 -20 -9 -18
0 -20 -7 -20 -80 0 -73 2 -80 20 -80 11 0 20 -4 20 -10 0 -5 -9 -10 -20 -10
-15 0 -20 -7 -20 -25 0 -18 5 -25 20 -25 11 0 20 -4 20 -10 0 -5 -9 -10 -20
-10 -17 0 -20 -7 -20 -45 0 -38 3 -45 20 -45 11 0 20 -4 20 -10 0 -5 -9 -10
-20 -10 -15 0 -20 -7 -20 -25 0 -18 5 -25 20 -25 11 0 20 -4 20 -10 0 -5 -9
-10 -20 -10 -18 0 -20 -7 -20 -79 0 -73 2 -79 22 -84 12 -4 19 -9 15 -14 -8
-7 -101 -5 -131 4 -12 3 -17 1 -14 -8 3 -8 10 -14 15 -14 6 0 14 -3 17 -7 3
-5 3 -6 -1 -3 -3 3 -13 -1 -22 -7 -9 -7 -13 -8 -9 -4 4 5 3 15 -3 23 -10 11
-15 11 -27 1 -13 -11 -14 -11 -8 0 6 11 -1 13 -30 12 -56 -3 -64 -1 -64 11 0
6 9 9 20 6 19 -5 20 0 20 79 0 76 -2 84 -19 84 -22 0 -35 26 -19 36 7 4 8 3 4
-4 -5 -8 0 -12 13 -12 16 0 21 6 21 25 0 29 -16 32 -42 8 -15 -13 -21 -14 -31
-4 -9 10 -8 11 6 5 13 -5 20 -1 24 15 3 12 13 21 24 21 16 0 19 8 19 45 0 38
-3 45 -20 45 -11 0 -20 5 -20 10 0 6 9 10 20 10 15 0 20 7 20 25 0 18 -5 25
-20 25 -11 0 -20 5 -20 10 0 6 9 10 20 10 18 0 20 7 20 80 0 73 -2 80 -19 80
-11 0 -23 5 -26 10 -4 6 -10 8 -15 5 -5 -3 -11 -2 -14 3 -2 4 12 7 32 6 20 -1
58 -3 83 -3z m-1198 -18 c-6 -16 -3 -16 18 2 l24 20 -19 -23 c-19 -22 -46 -16
-32 7 11 17 16 13 9 -6z m-19 -21 c3 -5 -1 -9 -9 -9 -8 0 -12 4 -9 9 3 4 7 8
9 8 2 0 6 -4 9 -8z m-1589 -11 c-9 -8 -36 -10 -30 -2 2 4 11 8 20 8 8 0 13 -3
10 -6z m1883 -76 c-3 -3 -9 2 -12 12 -6 14 -5 15 5 6 7 -7 10 -15 7 -18z
m-595 -10 c-3 -9 -8 -14 -10 -11 -3 3 -2 9 2 15 9 16 15 13 8 -4z m1006 -18
c-2 -2 -11 -8 -20 -15 -12 -9 -16 -9 -16 1 0 7 9 14 20 14 11 1 18 1 16 0z
m96 -7 c3 -6 -1 -7 -9 -4 -18 7 -21 14 -7 14 6 0 13 -4 16 -10z m-2228 -42
c-3 -7 -5 -2 -5 12 0 14 2 19 5 13 2 -7 2 -19 0 -25z m587 11 c-3 -5 -10 -7
-15 -3 -5 3 -7 10 -3 15 3 5 10 7 15 3 5 -3 7 -10 3 -15z m481 -19 c-3 -5 -12
-10 -18 -10 -7 0 -6 4 3 10 19 12 23 12 15 0z m1765 -10 c-12 -8 -12 -10 -1
-10 8 0 12 -3 8 -6 -9 -9 -28 6 -22 17 4 5 12 9 18 9 7 0 6 -4 -3 -10z m-1682
-25 c-3 -3 -9 2 -12 12 -6 14 -5 15 5 6 7 -7 10 -15 7 -18z m1399 -11 c0 -7
-5 -15 -12 -17 -6 -3 -11 3 -11 12 0 10 5 18 11 18 7 0 12 -6 12 -13z m-1957
-75 c0 -6 -4 -7 -10 -4 -5 3 -10 11 -10 16 0 6 5 7 10 4 6 -3 10 -11 10 -16z
m-596 -61 c-5 -8 -1 -9 12 -4 14 5 16 4 7 -5 -13 -13 -37 -3 -28 12 4 5 8 9
11 9 3 0 2 -5 -2 -12z m2020 -14 c3 -8 2 -12 -4 -9 -6 3 -10 10 -10 16 0 14 7
11 14 -7z m-589 -12 c-3 -3 -11 0 -18 7 -9 10 -8 11 6 5 10 -3 15 -9 12 -12z
m280 8 c-3 -5 -12 -10 -18 -10 -7 0 -6 4 3 10 19 12 23 12 15 0z m568 -30 c-3
-12 -8 -19 -11 -16 -5 6 5 36 12 36 2 0 2 -9 -1 -20z m-1120 -5 c-3 -9 -8 -14
-10 -11 -3 3 -2 9 2 15 9 16 15 13 8 -4z m1062 -25 c-3 -5 -12 -10 -18 -10 -7
0 -6 4 3 10 19 12 23 12 15 0z m-2515 -24 c0 -2 -7 -7 -16 -10 -8 -3 -12 -2
-9 4 6 10 25 14 25 6z m2410 -61 c-5 -6 -8 -15 -5 -18 3 -4 2 -5 -2 -2 -4 3
-8 17 -9 30 -1 20 2 23 13 14 9 -8 10 -15 3 -24z m-1080 5 c0 -5 -5 -10 -11
-10 -5 0 -7 5 -4 10 3 6 8 10 11 10 2 0 4 -4 4 -10z m-447 -35 c3 -6 -3 -11
-12 -11 -10 0 -18 5 -18 11 0 7 6 12 13 12 7 0 15 -5 17 -12z m487 11 c0 -3
-4 -8 -10 -11 -5 -3 -10 -1 -10 4 0 6 5 11 10 11 6 0 10 -2 10 -4z m1204 -32
c3 -8 2 -12 -4 -9 -6 3 -10 10 -10 16 0 14 7 11 14 -7z m271 -13 c-3 -6 3 -14
12 -20 10 -6 13 -11 6 -11 -6 0 -15 5 -18 10 -4 6 -12 7 -18 3 -7 -4 -6 0 2
10 14 18 26 23 16 8z m-486 -8 c-4 -25 3 -35 19 -29 15 5 14 4 -2 -9 -10 -8
-22 -12 -26 -10 -5 3 -6 37 -1 53 2 6 11 1 10 -5z m-2299 -29 c0 -2 -7 -4 -15
-4 -8 0 -15 4 -15 10 0 5 7 7 15 4 8 -4 15 -8 15 -10z m138 -15 c-3 -8 -7 -3
-11 10 -4 17 -3 21 5 13 5 -5 8 -16 6 -23z m37 21 c-3 -5 -12 -10 -18 -10 -7
0 -6 4 3 10 19 12 23 12 15 0z m1694 -17 c3 -2 -6 -1 -20 1 -13 2 -28 5 -34 5
-5 1 -3 5 5 11 9 6 20 5 30 -3 8 -6 17 -13 19 -14z m601 18 c0 -5 8 -7 19 -4
10 3 21 1 24 -4 3 -4 -11 -7 -31 -7 -55 3 -58 3 -42 14 19 12 30 13 30 1z
m527 -6 c0 -8 -4 -12 -9 -9 -5 3 -6 10 -3 15 9 13 12 11 12 -6z m-2922 -4 c3
-5 2 -12 -3 -15 -5 -3 -9 1 -9 9 0 17 3 19 12 6z m495 -5 c0 -2 -7 -7 -16 -10
-8 -3 -12 -2 -9 4 6 10 25 14 25 6z m128 -5 c9 -5 4 -8 -16 -7 -17 1 -28 4
-25 9 6 9 25 9 41 -2z m687 -9 c-3 -3 -11 0 -18 7 -9 10 -8 11 6 5 10 -3 15
-9 12 -12z m385 12 c0 -8 -19 -13 -24 -6 -3 5 1 9 9 9 8 0 15 -2 15 -3z"/>
<path d="M1620 2612 c-16 -13 -23 -32 -27 -79 -6 -71 1 -103 19 -85 16 16 101
15 116 0 9 -9 12 4 12 59 0 56 -4 76 -21 97 -24 31 -66 35 -99 8z m94 -10 c3
-5 -1 -9 -9 -9 -8 0 -12 4 -9 9 3 4 7 8 9 8 2 0 6 -4 9 -8z m-6 -87 c-3 -3 -9
2 -12 12 -6 14 -5 15 5 6 7 -7 10 -15 7 -18z"/>
<path d="M1623 2433 c-18 -7 -16 -30 3 -37 49 -19 116 3 93 31 -11 13 -71 17
-96 6z"/>
<path d="M1594 2377 c-3 -8 -4 -36 -2 -63 2 -38 6 -48 18 -45 38 11 90 12 108
2 19 -10 20 -7 20 54 0 51 -2 63 -14 58 -7 -3 -12 -8 -10 -12 6 -9 -85 2 -102
13 -7 4 -14 1 -18 -7z"/>
<path d="M1618 2243 c-18 -22 6 -40 29 -22 16 13 17 12 4 -3 -12 -16 -11 -18
13 -18 30 0 34 16 9 37 -16 13 -16 13 3 4 12 -6 24 -7 28 -3 4 3 4 -2 0 -13
-7 -18 -6 -19 10 -6 17 14 17 16 0 28 -22 16 -81 14 -96 -4z"/>
<path d="M1592 2132 c4 -84 23 -112 75 -112 55 0 73 27 73 111 0 69 -1 70 -22
62 -30 -10 -77 -10 -107 1 -23 8 -23 8 -19 -62z m75 -44 c-3 -8 -6 -5 -6 6 -1
11 2 17 5 13 3 -3 4 -12 1 -19z m-26 -43 c8 -16 6 -15 -10 4 -12 13 -21 28
-21 35 0 12 14 -5 31 -39z"/>
<path d="M2774 2621 c3 -5 -2 -8 -11 -7 -31 2 -60 -132 -33 -149 6 -4 8 -11 5
-16 -3 -5 1 -6 9 -3 8 3 14 11 12 17 -1 7 -1 9 1 5 7 -12 41 -9 49 4 5 8 2 9
-12 4 -10 -4 -15 -4 -11 0 4 4 0 12 -9 18 -13 10 -13 12 5 12 11 0 18 -3 15
-7 -2 -4 3 -10 12 -13 8 -3 12 -10 9 -16 -3 -5 2 -10 12 -10 11 0 25 -6 32
-12 11 -11 13 -10 8 5 -4 9 -2 17 3 17 24 0 0 126 -28 148 -18 14 -76 17 -68
3z m81 -111 c-3 -5 -1 -10 4 -10 6 0 11 -5 11 -10 0 -6 -8 -5 -20 2 -14 9 -16
14 -7 20 16 10 19 10 12 -2z"/>
<path d="M2752 2428 c-19 -19 5 -38 47 -38 44 0 66 17 50 37 -14 17 -33 17
-23 1 6 -10 4 -10 -7 0 -17 15 -51 16 -67 0z m28 -14 c0 -8 -19 -13 -24 -6 -3
5 1 9 9 9 8 0 15 -2 15 -3z"/>
<path d="M2733 2378 c4 -10 2 -18 -3 -18 -12 0 -13 -70 -2 -87 5 -8 13 -9 22
-3 20 13 77 12 102 -1 13 -7 18 -7 14 -1 -3 6 -2 13 4 17 11 7 12 61 2 87 -5
13 -11 15 -22 8 -22 -14 -94 -12 -109 3 -11 10 -13 9 -8 -5z"/>
<path d="M2749 2244 c-11 -14 -10 -18 6 -30 10 -8 31 -14 45 -14 14 0 35 6 45
14 28 21 3 46 -45 46 -22 0 -43 -7 -51 -16z m79 -8 c7 1 8 0 2 -3 -5 -2 -8 -9
-4 -14 8 -14 -6 -10 -23 6 -8 8 -19 12 -25 9 -7 -4 -8 -2 -4 4 5 8 13 9 24 3
9 -4 23 -7 30 -5z"/>
<path d="M2726 2185 c-9 -25 -7 -87 3 -81 4 3 7 -6 5 -20 -3 -34 28 -64 66
-64 39 0 74 34 67 66 -2 13 0 21 4 18 5 -3 9 13 9 36 0 25 -4 39 -10 35 -6 -4
-7 1 -3 11 5 14 3 16 -13 9 -23 -11 -83 -12 -105 -1 -11 5 -19 2 -23 -9z m99
-45 c3 -6 -1 -7 -9 -4 -18 7 -21 14 -7 14 6 0 13 -4 16 -10z m-57 -40 c-7 -10
-14 -17 -17 -15 -4 4 18 35 25 35 2 0 -1 -9 -8 -20z m3 -53 c-10 -9 -11 -8 -5
6 3 10 9 15 12 12 3 -3 0 -11 -7 -18z"/>
<path d="M3342 2428 c-18 -18 5 -38 43 -38 42 0 65 9 65 25 0 25 -85 36 -108
13z"/>
<path d="M3365 2250 c3 -5 0 -7 -8 -4 -25 9 -29 -14 -5 -30 28 -20 58 -20 83
-2 16 12 17 16 6 30 -14 17 -87 23 -76 6z"/>
<path d="M971 2522 c0 -55 2 -62 19 -62 15 0 24 -17 46 -84 15 -47 32 -82 37
-79 4 3 6 12 3 20 -3 8 -2 12 3 9 14 -9 23 44 10 60 -10 12 -9 17 1 27 10 10
12 9 7 -5 -4 -10 -2 -18 2 -18 15 0 28 51 29 115 2 67 -2 63 -42 -54 -12 -36
-27 -66 -32 -68 -6 -2 -20 29 -33 68 -12 39 -29 85 -36 102 -12 30 -13 29 -14
-31z m143 -68 c3 -8 2 -12 -4 -9 -6 3 -10 10 -10 16 0 14 7 11 14 -7z"/>
<path d="M970 2325 c0 -37 3 -45 18 -45 14 0 24 -17 40 -69 18 -56 26 -69 42
-68 19 1 25 13 22 50 -1 9 3 17 8 17 15 0 32 71 28 120 l-3 45 -22 -64 c-13
-35 -20 -68 -16 -74 3 -5 1 -7 -4 -4 -6 4 -14 -4 -17 -18 -4 -14 -10 -25 -14
-25 -4 0 -20 41 -36 90 -16 50 -33 90 -38 90 -4 0 -8 -20 -8 -45z"/>
<path d="M917 2253 c-10 -10 -8 -25 2 -18 5 3 13 0 17 -6 4 -7 3 -9 -4 -5 -6
3 -13 2 -17 -4 -3 -5 3 -10 14 -10 16 0 21 6 21 25 0 24 -18 34 -33 18z"/>
<path d="M970 2110 c0 -77 1 -80 23 -80 13 0 28 -5 35 -12 15 -15 15 -6 1 43
-7 21 -16 36 -22 32 -6 -3 -7 -1 -3 5 8 14 -13 92 -26 92 -4 0 -8 -36 -8 -80z"/>
<path d="M1100 2125 c-12 -35 -18 -70 -14 -76 4 -7 3 -9 -3 -6 -6 4 -14 0 -17
-9 -8 -21 -8 -23 7 -19 58 14 57 12 57 96 0 44 -2 79 -4 79 -2 0 -14 -29 -26
-65z"/>
<path d="M1066 2131 c-4 -7 -5 -15 -2 -18 9 -9 19 4 14 18 -4 11 -6 11 -12 0z"/>
<path d="M2119 2258 c-1 -2 -3 -13 -4 -25 -2 -17 3 -23 16 -23 14 0 19 7 19
25 0 16 -6 25 -15 25 -8 0 -16 -1 -16 -2z m15 -24 c3 -8 2 -12 -4 -9 -6 3 -10
10 -10 16 0 14 7 11 14 -7z"/>
<path d="M3890 2479 c0 -16 5 -20 20 -16 11 3 20 0 20 -6 0 -6 8 -20 18 -31
17 -21 17 -21 -4 -3 -30 25 -54 22 -54 -8 0 -18 5 -25 19 -25 11 0 22 5 24 10
3 6 4 5 3 -2 -1 -7 -12 -17 -24 -23 -40 -18 -26 -35 28 -35 38 0 50 4 50 15 0
8 -9 15 -20 15 -11 0 -20 6 -20 14 0 9 7 12 20 9 16 -4 20 0 20 21 0 19 -5 26
-20 26 -11 0 -20 5 -20 10 0 6 9 10 20 10 13 0 20 7 20 20 0 17 -7 20 -50 20
-44 0 -50 -2 -50 -21z"/>
<path d="M3887 2300 c3 -11 14 -20 24 -20 11 0 19 -4 19 -10 0 -5 -9 -10 -20
-10 -15 0 -20 -7 -20 -25 0 -23 13 -31 43 -26 5 1 6 -3 2 -9 -3 -5 -15 -10
-25 -10 -13 0 -18 -7 -17 -20 1 -17 8 -20 49 -20 41 0 48 3 48 20 0 13 -7 20
-20 20 -11 0 -20 5 -20 10 0 6 9 10 20 10 15 0 20 7 20 25 0 20 -5 25 -27 26
l-28 1 28 11 c15 6 27 19 27 29 0 15 -9 18 -54 18 -49 0 -54 -2 -49 -20z"/>
<path d="M3890 2082 c0 -40 4 -51 19 -55 10 -2 26 0 36 6 14 7 16 7 9 -4 -6
-12 -5 -12 8 -1 13 10 17 10 21 0 3 -7 6 12 6 43 l1 55 -50 3 -50 2 0 -49z"/>
</g>
</svg>
